<?xml version="1.0" encoding="UTF-8"?>
<svg xmlns="http://www.w3.org/2000/svg" xmlns:xlink="http://www.w3.org/1999/xlink" width="271.65625pt" height="271.25735pt" viewBox="0 0 271.65625 271.25735" version="1.1">
<g id="surface1">
<path style="fill-rule:nonzero;fill:rgb(85.098267%,85.098267%,85.098267%);fill-opacity:0.251;stroke-width:0.75;stroke-linecap:round;stroke-linejoin:round;stroke:rgb(0%,0%,0%);stroke-opacity:1;stroke-miterlimit:10;" d="M 313.328969 180.000381 L 313.328969 180.250381 L 180.000844 180.000381 Z M 313.328969 180.000381 " transform="matrix(1,0,0,-1,-44.69225,315.3871)"/>
<path style="fill-rule:nonzero;fill:rgb(50.196838%,50.196838%,50.196838%);fill-opacity:0.251;stroke-width:0.75;stroke-linecap:round;stroke-linejoin:round;stroke:rgb(0%,0%,0%);stroke-opacity:1;stroke-miterlimit:10;" d="M 313.328969 180.250381 L 313.328969 180.558975 L 180.000844 180.000381 Z M 313.328969 180.250381 " transform="matrix(1,0,0,-1,-44.69225,315.3871)"/>
<path style="fill-rule:nonzero;fill:rgb(0%,0%,0%);fill-opacity:0.251;stroke-width:0.75;stroke-linecap:round;stroke-linejoin:round;stroke:rgb(0%,0%,0%);stroke-opacity:1;stroke-miterlimit:10;" d="M 313.328969 180.558975 L 313.328969 180.930069 L 180.000844 180.000381 Z M 313.328969 180.558975 " transform="matrix(1,0,0,-1,-44.69225,315.3871)"/>
<path style="fill-rule:nonzero;fill:rgb(94.117737%,31.764221%,19.999695%);fill-opacity:0.251;stroke-width:0.75;stroke-linecap:round;stroke-linejoin:round;stroke:rgb(0%,0%,0%);stroke-opacity:1;stroke-miterlimit:10;" d="M 313.328969 180.930069 L 313.321156 181.539444 L 180.000844 180.000381 Z M 313.328969 180.930069 " transform="matrix(1,0,0,-1,-44.69225,315.3871)"/>
<path style="fill-rule:nonzero;fill:rgb(95.68634%,86.274719%,0%);fill-opacity:0.251;stroke-width:0.75;stroke-linecap:round;stroke-linejoin:round;stroke:rgb(0%,0%,0%);stroke-opacity:1;stroke-miterlimit:10;" d="M 313.321156 181.539444 L 313.309438 182.340225 L 180.000844 180.000381 Z M 313.321156 181.539444 " transform="matrix(1,0,0,-1,-44.69225,315.3871)"/>
<path style="fill-rule:nonzero;fill:rgb(29.803467%,44.7052%,11.372375%);fill-opacity:0.251;stroke-width:0.75;stroke-linecap:round;stroke-linejoin:round;stroke:rgb(0%,0%,0%);stroke-opacity:1;stroke-miterlimit:10;" d="M 313.309438 182.340225 L 313.289906 183.4496 L 180.000844 180.000381 Z M 313.309438 182.340225 " transform="matrix(1,0,0,-1,-44.69225,315.3871)"/>
<path style="fill-rule:nonzero;fill:rgb(33.724976%,60.784912%,74.118042%);fill-opacity:0.251;stroke-width:0.75;stroke-linecap:round;stroke-linejoin:round;stroke:rgb(0%,0%,0%);stroke-opacity:1;stroke-miterlimit:10;" d="M 313.289906 183.4496 L 313.250844 184.691787 L 180.000844 180.000381 Z M 313.289906 183.4496 " transform="matrix(1,0,0,-1,-44.69225,315.3871)"/>
<path style="fill-rule:nonzero;fill:rgb(85.098267%,85.098267%,85.098267%);fill-opacity:0.502;stroke-width:0.75;stroke-linecap:round;stroke-linejoin:round;stroke:rgb(0%,0%,0%);stroke-opacity:1;stroke-miterlimit:10;" d="M 313.250844 184.691787 L 313.200063 185.98085 L 180.000844 180.000381 Z M 313.250844 184.691787 " transform="matrix(1,0,0,-1,-44.69225,315.3871)"/>
<path style="fill-rule:nonzero;fill:rgb(50.196838%,50.196838%,50.196838%);fill-opacity:0.502;stroke-width:0.75;stroke-linecap:round;stroke-linejoin:round;stroke:rgb(0%,0%,0%);stroke-opacity:1;stroke-miterlimit:10;" d="M 313.200063 185.98085 L 313.12975 187.269912 L 180.000844 180.000381 Z M 313.200063 185.98085 " transform="matrix(1,0,0,-1,-44.69225,315.3871)"/>
<path style="fill-rule:nonzero;fill:rgb(0%,0%,0%);fill-opacity:0.502;stroke-width:0.75;stroke-linecap:round;stroke-linejoin:round;stroke:rgb(0%,0%,0%);stroke-opacity:1;stroke-miterlimit:10;" d="M 313.12975 187.269912 L 312.938344 190.23085 L 180.000844 180.000381 Z M 313.12975 187.269912 " transform="matrix(1,0,0,-1,-44.69225,315.3871)"/>
<path style="fill-rule:nonzero;fill:rgb(94.117737%,31.764221%,19.999695%);fill-opacity:0.502;stroke-width:0.75;stroke-linecap:round;stroke-linejoin:round;stroke:rgb(0%,0%,0%);stroke-opacity:1;stroke-miterlimit:10;" d="M 312.938344 190.23085 L 312.661 193.41835 L 180.000844 180.000381 Z M 312.938344 190.23085 " transform="matrix(1,0,0,-1,-44.69225,315.3871)"/>
<path style="fill-rule:nonzero;fill:rgb(95.68634%,86.274719%,0%);fill-opacity:0.502;stroke-width:0.75;stroke-linecap:round;stroke-linejoin:round;stroke:rgb(0%,0%,0%);stroke-opacity:1;stroke-miterlimit:10;" d="M 312.661 193.41835 L 312.278188 196.73085 L 180.000844 180.000381 Z M 312.661 193.41835 " transform="matrix(1,0,0,-1,-44.69225,315.3871)"/>
<path style="fill-rule:nonzero;fill:rgb(29.803467%,44.7052%,11.372375%);fill-opacity:0.502;stroke-width:0.75;stroke-linecap:round;stroke-linejoin:round;stroke:rgb(0%,0%,0%);stroke-opacity:1;stroke-miterlimit:10;" d="M 312.278188 196.73085 L 311.821156 200.031631 L 180.000844 180.000381 Z M 312.278188 196.73085 " transform="matrix(1,0,0,-1,-44.69225,315.3871)"/>
<path style="fill-rule:nonzero;fill:rgb(33.724976%,60.784912%,74.118042%);fill-opacity:0.502;stroke-width:0.75;stroke-linecap:round;stroke-linejoin:round;stroke:rgb(0%,0%,0%);stroke-opacity:1;stroke-miterlimit:10;" d="M 311.821156 200.031631 L 311.250844 203.500381 L 180.000844 180.000381 Z M 311.821156 200.031631 " transform="matrix(1,0,0,-1,-44.69225,315.3871)"/>
<path style="fill-rule:nonzero;fill:rgb(85.098267%,85.098267%,85.098267%);fill-opacity:0.753;stroke-width:0.75;stroke-linecap:round;stroke-linejoin:round;stroke:rgb(0%,0%,0%);stroke-opacity:1;stroke-miterlimit:10;" d="M 311.250844 203.500381 L 310.399281 207.801162 L 180.000844 180.000381 Z M 311.250844 203.500381 " transform="matrix(1,0,0,-1,-44.69225,315.3871)"/>
<path style="fill-rule:nonzero;fill:rgb(50.196838%,50.196838%,50.196838%);fill-opacity:0.753;stroke-width:0.75;stroke-linecap:round;stroke-linejoin:round;stroke:rgb(0%,0%,0%);stroke-opacity:1;stroke-miterlimit:10;" d="M 310.399281 207.801162 L 309.411 212.129287 L 180.000844 180.000381 Z M 310.399281 207.801162 " transform="matrix(1,0,0,-1,-44.69225,315.3871)"/>
<path style="fill-rule:nonzero;fill:rgb(0%,0%,0%);fill-opacity:0.753;stroke-width:0.75;stroke-linecap:round;stroke-linejoin:round;stroke:rgb(0%,0%,0%);stroke-opacity:1;stroke-miterlimit:10;" d="M 309.411 212.129287 L 308.211781 216.590225 L 180.000844 180.000381 Z M 309.411 212.129287 " transform="matrix(1,0,0,-1,-44.69225,315.3871)"/>
<path style="fill-rule:nonzero;fill:rgb(94.117737%,31.764221%,19.999695%);fill-opacity:0.753;stroke-width:0.75;stroke-linecap:round;stroke-linejoin:round;stroke:rgb(0%,0%,0%);stroke-opacity:1;stroke-miterlimit:10;" d="M 308.211781 216.590225 L 306.110219 223.301162 L 180.000844 180.000381 Z M 308.211781 216.590225 " transform="matrix(1,0,0,-1,-44.69225,315.3871)"/>
<path style="fill-rule:nonzero;fill:rgb(95.68634%,86.274719%,0%);fill-opacity:0.753;stroke-width:0.75;stroke-linecap:round;stroke-linejoin:round;stroke:rgb(0%,0%,0%);stroke-opacity:1;stroke-miterlimit:10;" d="M 306.110219 223.301162 L 303.489125 230.289444 L 180.000844 180.000381 Z M 306.110219 223.301162 " transform="matrix(1,0,0,-1,-44.69225,315.3871)"/>
<path style="fill-rule:nonzero;fill:rgb(29.803467%,44.7052%,11.372375%);fill-opacity:0.753;stroke-width:0.75;stroke-linecap:round;stroke-linejoin:round;stroke:rgb(0%,0%,0%);stroke-opacity:1;stroke-miterlimit:10;" d="M 303.489125 230.289444 L 299.008656 240.109756 L 180.000844 180.000381 Z M 303.489125 230.289444 " transform="matrix(1,0,0,-1,-44.69225,315.3871)"/>
<path style="fill-rule:nonzero;fill:rgb(33.724976%,60.784912%,74.118042%);fill-opacity:0.753;stroke-width:0.75;stroke-linecap:round;stroke-linejoin:round;stroke:rgb(0%,0%,0%);stroke-opacity:1;stroke-miterlimit:10;" d="M 299.008656 240.109756 L 293.758656 249.539444 L 180.000844 180.000381 Z M 299.008656 240.109756 " transform="matrix(1,0,0,-1,-44.69225,315.3871)"/>
<path style="fill-rule:nonzero;fill:rgb(85.098267%,85.098267%,85.098267%);fill-opacity:1;stroke-width:0.75;stroke-linecap:round;stroke-linejoin:round;stroke:rgb(0%,0%,0%);stroke-opacity:1;stroke-miterlimit:10;" d="M 293.758656 249.539444 L 290.258656 254.961319 L 286.508656 260.211319 L 282.500844 265.269912 L 180.000844 180.000381 Z M 293.758656 249.539444 " transform="matrix(1,0,0,-1,-44.69225,315.3871)"/>
<path style="fill-rule:nonzero;fill:rgb(50.196838%,50.196838%,50.196838%);fill-opacity:1;stroke-width:0.75;stroke-linecap:round;stroke-linejoin:round;stroke:rgb(0%,0%,0%);stroke-opacity:1;stroke-miterlimit:10;" d="M 282.500844 265.269912 L 278.828969 269.500381 L 274.989125 273.570694 L 270.981313 277.469131 L 266.809438 281.211319 L 180.000844 180.000381 Z M 282.500844 265.269912 " transform="matrix(1,0,0,-1,-44.69225,315.3871)"/>
<path style="fill-rule:nonzero;fill:rgb(0%,0%,0%);fill-opacity:1;stroke-width:0.75;stroke-linecap:round;stroke-linejoin:round;stroke:rgb(0%,0%,0%);stroke-opacity:1;stroke-miterlimit:10;" d="M 266.809438 281.211319 L 263.168813 284.219131 L 259.418813 287.101944 L 255.578969 289.851944 L 251.641469 292.4496 L 247.610219 294.91835 L 243.489125 297.238662 L 239.301625 299.41835 L 235.028188 301.4496 L 230.700063 303.320694 L 226.289906 305.039444 L 180.000844 180.000381 Z M 266.809438 281.211319 " transform="matrix(1,0,0,-1,-44.69225,315.3871)"/>
<path style="fill-rule:nonzero;fill:rgb(94.117737%,31.764221%,19.999695%);fill-opacity:1;stroke-width:0.75;stroke-linecap:round;stroke-linejoin:round;stroke:rgb(0%,0%,0%);stroke-opacity:1;stroke-miterlimit:10;" d="M 226.289906 305.039444 L 221.590688 306.680069 L 216.828969 308.148819 L 212.008656 309.430069 L 207.149281 310.539444 L 202.250844 311.461319 L 197.328969 312.1996 L 192.371938 312.758194 L 187.399281 313.129287 L 182.418813 313.308975 L 177.438344 313.308975 L 180.000844 180.000381 Z M 226.289906 305.039444 " transform="matrix(1,0,0,-1,-44.69225,315.3871)"/>
<path style="fill-rule:nonzero;fill:rgb(95.68634%,86.274719%,0%);fill-opacity:1;stroke-width:0.75;stroke-linecap:round;stroke-linejoin:round;stroke:rgb(0%,0%,0%);stroke-opacity:1;stroke-miterlimit:10;" d="M 177.438344 313.308975 L 172.661 313.129287 L 167.891469 312.781631 L 163.141469 312.258194 L 158.411 311.570694 L 153.700063 310.711319 L 149.028188 309.691787 L 144.399281 308.488662 L 139.809438 307.129287 L 135.278188 305.609756 L 130.801625 303.930069 L 126.391469 302.078506 L 122.051625 300.078506 L 117.778188 297.91835 L 180.000844 180.000381 Z M 177.438344 313.308975 " transform="matrix(1,0,0,-1,-44.69225,315.3871)"/>
<path style="fill-rule:nonzero;fill:rgb(29.803467%,44.7052%,11.372375%);fill-opacity:1;stroke-width:0.75;stroke-linecap:round;stroke-linejoin:round;stroke:rgb(0%,0%,0%);stroke-opacity:1;stroke-miterlimit:10;" d="M 117.778188 297.91835 L 113.801625 295.738662 L 109.899281 293.41835 L 106.078969 290.969131 L 102.3485 288.391006 L 98.711781 285.691787 L 95.161 282.859756 L 91.711781 279.910537 L 88.360219 276.851944 L 85.121938 273.680069 L 81.989125 270.391006 L 78.969594 267.008194 L 76.059438 263.519912 L 73.278188 259.930069 L 70.621938 256.258194 L 68.090688 252.488662 L 65.688344 248.641006 L 63.418813 244.711319 L 61.289906 240.711319 L 59.289906 236.629287 L 57.430531 232.488662 L 55.719594 228.289444 L 54.149281 224.031631 L 52.719594 219.73085 L 180.000844 180.000381 Z M 117.778188 297.91835 " transform="matrix(1,0,0,-1,-44.69225,315.3871)"/>
<path style="fill-rule:nonzero;fill:rgb(33.724976%,60.784912%,74.118042%);fill-opacity:1;stroke-width:0.75;stroke-linecap:round;stroke-linejoin:round;stroke:rgb(0%,0%,0%);stroke-opacity:1;stroke-miterlimit:10;" d="M 52.719594 219.73085 L 51.481313 215.500381 L 50.37975 211.23085 L 49.411 206.930069 L 48.5985 202.601944 L 47.918813 198.238662 L 47.391469 193.859756 L 47.000844 189.469131 L 46.758656 185.070694 L 46.668813 180.660537 L 46.719594 176.250381 L 46.918813 171.851944 L 47.258656 167.461319 L 47.750844 163.070694 L 48.37975 158.711319 L 49.149281 154.371475 L 50.071156 150.058975 L 51.12975 145.781631 L 52.328969 141.539444 L 53.680531 137.340225 L 55.149281 133.191787 L 56.770375 129.090225 L 58.520375 125.039444 L 60.399281 121.051162 L 62.418813 117.129287 L 64.559438 113.281631 L 66.828969 109.500381 L 69.219594 105.801162 L 71.739125 102.180069 L 74.371938 98.641006 L 77.121938 95.191787 L 79.981313 91.840225 L 82.938344 88.578506 L 86.020375 85.41835 L 89.200063 82.359756 L 92.481313 79.41835 L 95.8485 76.578506 L 99.309438 73.851944 L 102.871938 71.238662 L 180.000844 180.000381 Z M 52.719594 219.73085 " transform="matrix(1,0,0,-1,-44.69225,315.3871)"/>
<path style="fill-rule:nonzero;fill:rgb(100%,100%,100%);fill-opacity:1;stroke-width:0.75;stroke-linecap:round;stroke-linejoin:round;stroke:rgb(0%,0%,0%);stroke-opacity:1;stroke-miterlimit:10;" d="M 102.871938 71.238662 L 106.399281 68.820694 L 110.020375 66.508194 L 113.711781 64.320694 L 117.461781 62.238662 L 121.278188 60.289444 L 125.161 58.469131 L 129.0985 56.758194 L 133.090688 55.191787 L 137.12975 53.750381 L 141.211781 52.430069 L 145.340688 51.250381 L 149.500844 50.1996 L 153.688344 49.289444 L 157.899281 48.508194 L 162.149281 47.871475 L 166.399281 47.359756 L 170.680531 46.988662 L 174.961781 46.758194 L 179.250844 46.66835 L 183.539906 46.711319 L 187.821156 46.898819 L 192.0985 47.219131 L 196.371938 47.680069 L 200.610219 48.269912 L 204.840688 49.000381 L 209.039906 49.871475 L 213.211781 50.871475 L 217.3485 52.000381 L 221.450063 53.269912 L 225.500844 54.66835 L 229.508656 56.1996 L 233.469594 57.859756 L 237.371938 59.641006 L 241.211781 61.551162 L 244.989125 63.578506 L 248.700063 65.73085 L 252.340688 68.000381 L 255.911 70.379287 L 259.391469 72.879287 L 262.801625 75.488662 L 266.121938 78.211319 L 269.3485 81.031631 L 272.481313 83.9496 L 275.520375 86.98085 L 278.469594 90.101944 L 281.309438 93.308975 L 284.039906 96.621475 L 286.668813 100.008194 L 289.188344 103.48085 L 291.590688 107.031631 L 293.87975 110.660537 L 296.059438 114.359756 L 298.110219 118.121475 L 300.039906 121.961319 L 301.840688 125.851944 L 303.520375 129.789444 L 305.071156 133.789444 L 306.489125 137.840225 L 307.778188 141.930069 L 308.938344 146.058975 L 309.969594 150.23085 L 310.860219 154.41835 L 311.610219 158.641006 L 312.231313 162.891006 L 312.711781 167.148819 L 313.059438 171.430069 L 313.258656 175.711319 L 313.328969 180.000381 L 180.000844 180.000381 Z M 102.871938 71.238662 " transform="matrix(1,0,0,-1,-44.69225,315.3871)"/>
</g>
</svg>
